<svg width="18" height="21" viewBox="0 0 18 21" fill="none" xmlns="http://www.w3.org/2000/svg">
<path fill-rule="evenodd" clip-rule="evenodd" d="M6.45933 3.31153C5.67516 3.87614 5.00003 4.82592 5.00003 6.5C5.00003 9.43677 4.00681 11.8778 3.00949 13.5H9.00003H14.9906C13.9932 11.8778 13 9.43677 13 6.5C13 4.82592 12.3249 3.87614 11.5407 3.31153C10.7056 2.71022 9.67334 2.5 9.00003 2.5C8.32672 2.5 7.29449 2.71022 6.45933 3.31153ZM1.00003 15.5H9.00003H17C17.4045 15.5 17.7691 15.2564 17.9239 14.8827C18.0787 14.509 17.9931 14.0789 17.7071 13.7929C16.8586 12.9444 15 10.1878 15 6.5C15 4.17408 14.0085 2.62386 12.7093 1.68847C11.4612 0.789781 9.99339 0.5 9.00003 0.5C8.00667 0.5 6.5389 0.789781 5.29072 1.68847C3.99156 2.62386 3.00003 4.17408 3.00003 6.5C3.00003 10.1878 1.14142 12.9444 0.292922 13.7929C0.00692444 14.0789 -0.0786313 14.509 0.0761497 14.8827C0.230931 15.2564 0.595567 15.5 1.00003 15.5ZM6.89403 17.0519C6.64658 16.5582 6.04572 16.3585 5.55197 16.606C5.05823 16.8535 4.85857 17.4543 5.10602 17.9481C5.48268 18.6996 6.03242 19.3417 6.7143 19.7963C7.39787 20.252 8.18653 20.5 9.00003 20.5C9.81352 20.5 10.6022 20.252 11.2858 19.7963C11.9676 19.3417 12.5174 18.6996 12.894 17.9481C13.1415 17.4543 12.9418 16.8535 12.4481 16.606C11.9543 16.3585 11.3535 16.5582 11.106 17.0519C10.8729 17.517 10.5475 17.8848 10.1764 18.1322C9.80693 18.3785 9.40172 18.5 9.00003 18.5C8.59834 18.5 8.19313 18.3785 7.8237 18.1322C7.45257 17.8848 7.12713 17.517 6.89403 17.0519Z" fill="black"/>
</svg>
