<svg width="12" height="12" viewBox="0 0 12 12" fill="none" xmlns="http://www.w3.org/2000/svg">
<path fill-rule="evenodd" clip-rule="evenodd" d="M1 0C0.447715 0 0 0.447715 0 1V3C0 3.55228 0.447715 4 1 4H3C3.55228 4 4 3.55228 4 3V1C4 0.447715 3.55228 0 3 0H1ZM1 8C0.447715 8 0 8.44771 0 9V11C0 11.5523 0.447715 12 1 12H3C3.55228 12 4 11.5523 4 11V9C4 8.44771 3.55228 8 3 8H1ZM8 1C8 0.447715 8.44771 0 9 0H11C11.5523 0 12 0.447715 12 1V3C12 3.55228 11.5523 4 11 4H9C8.44771 4 8 3.55228 8 3V1ZM9 8C8.44771 8 8 8.44771 8 9V11C8 11.5523 8.44771 12 9 12H11C11.5523 12 12 11.5523 12 11V9C12 8.44771 11.5523 8 11 8H9Z" fill="black"/>
</svg>
